<?xml version="1.0" standalone="no"?>
<!DOCTYPE svg PUBLIC "-//W3C//DTD SVG 20010904//EN"
 "http://www.w3.org/TR/2001/REC-SVG-20010904/DTD/svg10.dtd">
<svg version="1.0" xmlns="http://www.w3.org/2000/svg"
 width="128.000000pt" height="128.000000pt" viewBox="0 0 128.000000 128.000000"
 preserveAspectRatio="xMidYMid meet">

<g transform="translate(0.000000,128.000000) scale(0.100000,-0.100000)"
fill="#000000" stroke="none">
<path d="M1 968 c0 -187 4 -303 9 -288 5 14 16 43 24 65 l15 40 -6 -62 c-5
-55 -4 -63 11 -63 23 0 10 -19 -21 -31 -13 -5 -21 -13 -18 -19 3 -5 1 -10 -4
-10 -8 0 -11 -96 -11 -300 l0 -300 640 0 640 0 0 300 c0 204 -3 300 -11 300
-5 0 -7 5 -4 10 3 6 -5 14 -18 19 -31 12 -44 31 -21 31 15 0 16 8 11 63 -4 51
-4 56 4 27 6 -19 16 -48 24 -65 13 -27 15 4 15 283 l0 312 -640 0 -640 0 1
-312z m552 -115 c-24 -2 -43 -9 -43 -15 0 -5 -7 -8 -15 -5 -8 4 -17 2 -20 -3
-3 -4 -23 -11 -46 -15 -39 -7 -40 -8 -20 -22 12 -8 21 -20 21 -26 0 -7 -5 -5
-10 4 -6 10 -30 20 -57 24 l-48 7 45 15 c91 29 146 41 190 40 l45 0 -42 -4z
m262 -7 c33 -8 78 -21 100 -29 33 -13 36 -16 15 -16 -14 -1 -37 -8 -52 -15
-16 -8 -28 -10 -28 -5 0 5 10 13 22 18 17 6 9 10 -40 21 -34 7 -62 16 -62 21
0 4 -21 10 -47 12 -45 3 -46 3 -8 5 22 1 67 -5 100 -12z m-682 -53 c-7 -2 -21
-2 -30 0 -10 3 -4 5 12 5 17 0 24 -2 18 -5z m1050 0 c-7 -2 -21 -2 -30 0 -10
3 -4 5 12 5 17 0 24 -2 18 -5z m-46 -86 l9 -42 -41 -3 c-22 -2 -44 -7 -49 -13
-18 -16 -147 -11 -168 8 -19 17 -25 72 -9 89 6 5 63 8 130 6 l120 -3 8 -42z
m-741 18 c3 -14 1 -39 -6 -56 l-13 -30 -76 5 c-138 9 -172 16 -167 35 3 9 8
28 12 44 l6 27 119 0 c118 0 119 0 125 -25z m838 -219 c-3 -14 -10 -26 -14
-26 -5 0 -3 13 3 30 13 35 21 33 11 -4z m-1164 -30 c0 -18 -17 8 -24 34 l-7
25 15 -25 c9 -14 15 -29 16 -34z"/>
</g>
</svg>
